<svg xmlns="http://www.w3.org/2000/svg" width="1400" height="400" viewBox="0 0 1400 400">
<defs>
<linearGradient id="ciel" x1="0" y1="0" x2="0" y2="400" gradientUnits="userSpaceOnUse"><stop offset="0" stop-color="#0a3a66"/><stop offset=".42" stop-color="#1a64a0"/><stop offset=".66" stop-color="#4c9dd0"/><stop offset=".79" stop-color="#a8d7ec"/><stop offset=".87" stop-color="#f9e5b4"/><stop offset="1" stop-color="#f3c983"/></linearGradient>
<radialGradient id="soleil" cx="1318" cy="128" r="132" gradientUnits="userSpaceOnUse"><stop offset="0" stop-color="#fff8dc"/><stop offset=".2" stop-color="#ffeaa6" stop-opacity=".9"/><stop offset=".55" stop-color="#ffd27a" stop-opacity=".3"/><stop offset="1" stop-color="#ffd27a" stop-opacity="0"/></radialGradient>
<linearGradient id="fut" x1="0" x2="1" y1="0" y2="0"><stop offset="0" stop-color="#bf9d68"/><stop offset=".38" stop-color="#e0c592"/><stop offset=".72" stop-color="#f6e6c2"/><stop offset="1" stop-color="#fff5dc"/></linearGradient>
<linearGradient id="cyp" x1="0" x2="1" y1="0" y2="0"><stop offset="0" stop-color="#173f22"/><stop offset=".55" stop-color="#2b6234"/><stop offset="1" stop-color="#4f9445"/></linearGradient>
<linearGradient id="pre" x1="0" y1="340" x2="0" y2="400" gradientUnits="userSpaceOnUse"><stop offset="0" stop-color="#c9b867"/><stop offset=".45" stop-color="#a7a24f"/><stop offset="1" stop-color="#7e8238"/></linearGradient>
<linearGradient id="champ" x1="0" y1="150" x2="0" y2="346" gradientUnits="userSpaceOnUse"><stop offset="0" stop-color="#9ff0ff" stop-opacity=".75"/><stop offset="1" stop-color="#3d8bff" stop-opacity=".45"/></linearGradient>
<pattern id="balayage" width="8" height="5" patternUnits="userSpaceOnUse"><path d="M0 .5h8" stroke="#e8fbff" stroke-opacity=".55"/></pattern>
<filter id="flou" x="-50%" y="-50%" width="200%" height="200%"><feGaussianBlur stdDeviation="8"/></filter>
<filter id="lueur" x="-50%" y="-50%" width="200%" height="200%"><feGaussianBlur stdDeviation="4"/></filter>
</defs>
<rect width="1400" height="400" fill="url(#ciel)"/>
<rect width="1400" height="400" fill="url(#soleil)"/>
<circle cx="1318" cy="128" r="26" fill="#fffbee"/>
<g fill="#fff" filter="url(#flou)" opacity=".55"><ellipse cx="1010" cy="96" rx="90" ry="15"/><ellipse cx="1080" cy="84" rx="54" ry="17"/><ellipse cx="1180" cy="70" rx="70" ry="11"/><ellipse cx="900" cy="150" rx="60" ry="10"/></g>
<path d="M0 318C60 300 110 286 170 292S280 276 340 290 450 300 520 284 650 268 720 286 860 300 930 282 1080 270 1200 292 1330 300 1400 286V400H0z" fill="#93bdd2"/>
<g fill="#b3ccd5"><rect x="314" y="294" width="40" height="3"/><rect x="316" y="297" width="3" height="13"/><rect x="325" y="297" width="3" height="13"/><rect x="334" y="297" width="3" height="10"/><rect x="343" y="297" width="3" height="13"/><rect x="350" y="297" width="3" height="13"/><path d="M312 294l22 -8 22 8z"/></g>
<path d="M0 336C80 322 150 318 230 326S380 312 470 322 600 334 700 324 880 312 980 322 1120 330 1200 318 1330 326 1400 322V400H0z" fill="#7fa98f"/>
<path d="M60 330c-5 -8.8 -4 -17.6 0 -22c4 4.4 5 13.2 0 22z" fill="#4e7b62" fill-opacity=".75"/><path d="M78 326c-5 -11.600000000000001 -4 -23.200000000000003 0 -29c4 5.800000000000001 5 17.4 0 29z" fill="#4e7b62" fill-opacity=".75"/><path d="M150 330c-5 -14.4 -4 -28.8 0 -36c4 7.2 5 21.599999999999998 0 36z" fill="#4e7b62" fill-opacity=".75"/><path d="M168 326c-5 -8.8 -4 -17.6 0 -22c4 4.4 5 13.2 0 22z" fill="#4e7b62" fill-opacity=".75"/><path d="M420 330c-5 -11.600000000000001 -4 -23.200000000000003 0 -29c4 5.800000000000001 5 17.4 0 29z" fill="#4e7b62" fill-opacity=".75"/><path d="M438 326c-5 -14.4 -4 -28.8 0 -36c4 7.2 5 21.599999999999998 0 36z" fill="#4e7b62" fill-opacity=".75"/><path d="M560 330c-5 -8.8 -4 -17.6 0 -22c4 4.4 5 13.2 0 22z" fill="#4e7b62" fill-opacity=".75"/><path d="M640 326c-5 -11.600000000000001 -4 -23.200000000000003 0 -29c4 5.800000000000001 5 17.4 0 29z" fill="#4e7b62" fill-opacity=".75"/><path d="M700 330c-5 -14.4 -4 -28.8 0 -36c4 7.2 5 21.599999999999998 0 36z" fill="#4e7b62" fill-opacity=".75"/>
<path d="M0 352C120 346 260 350 400 346S700 342 860 348 1080 352 1200 346 1330 350 1400 348V400H0z" fill="url(#pre)"/>
<path d="M748 350C733 327.6 732 280.56 740 255.92000000000002C744 246 747 241 748 238C749 241 752 246 756 255.92000000000002C764 280.56 763 327.6 748 350z" fill="url(#cyp)"/><path d="M772 350C757 319.2 756 254.51999999999998 764 220.64000000000001C768 204 771 199 772 196C773 199 776 204 780 220.64000000000001C788 254.51999999999998 787 319.2 772 350z" fill="url(#cyp)"/><path d="M1140 350C1125 310.8 1124 228.48000000000002 1132 185.36C1136 162 1139 157 1140 154C1141 157 1144 162 1148 185.36C1156 228.48000000000002 1155 310.8 1140 350z" fill="url(#cyp)"/><path d="M1360 350C1345 317.6 1344 249.56 1352 213.92000000000002C1356 196 1359 191 1360 188C1361 191 1364 196 1368 213.92000000000002C1376 249.56 1375 317.6 1360 350z" fill="url(#cyp)"/><path d="M1386 350C1371 326.8 1370 278.08 1378 252.56C1382 242 1385 237 1386 234C1387 237 1390 242 1394 252.56C1402 278.08 1401 326.8 1386 350z" fill="url(#cyp)"/>
<path d="M962 326V214h156V326z" fill="#b08f5c" fill-opacity=".55"/>
<path d="M1012 326V262h34V326z" fill="#4a3a20" fill-opacity=".45"/>
<rect x="822" y="346" width="330" height="10" fill="#d2b783"/><rect x="822" y="346" width="330" height="2" fill="#f2e1b9"/>
<rect x="832" y="336" width="310" height="10" fill="#dcc391"/><rect x="832" y="336" width="310" height="2" fill="#f6e7c3"/>
<rect x="842" y="326" width="290" height="10" fill="#e6d09f"/><rect x="842" y="326" width="290" height="2" fill="#fbf0d4"/>
<rect x="822" y="356" width="330" height="3" fill="#6b5428" fill-opacity=".35"/>
<g stroke-width="1"><rect x="856" y="178" width="30" height="148" fill="url(#fut)"/><path d="M852 172h38l-4 7h-30z" fill="#e2c99a"/><rect x="850" y="164" width="42" height="8" fill="#f4e4bf"/><rect x="850" y="164" width="42" height="2" fill="#fff6dc"/><path d="M864 180V324M871 180V324M878 180V324" stroke="#a9874f" stroke-opacity=".35"/><path d="M856 326h30l-16 6h-30z" fill="#6d5326" fill-opacity=".22"/><path d="M914 326V232l5 -7 6 5 6 -9 5 6 4 -4 4 3V326z" fill="url(#fut)"/><path d="M922 238V324M929 238V324M936 238V324" stroke="#a9874f" stroke-opacity=".35"/><path d="M914 326h30l-16 6h-30z" fill="#6d5326" fill-opacity=".22"/><rect x="972" y="178" width="30" height="148" fill="url(#fut)"/><path d="M968 172h38l-4 7h-30z" fill="#e2c99a"/><rect x="966" y="164" width="42" height="8" fill="#f4e4bf"/><rect x="966" y="164" width="42" height="2" fill="#fff6dc"/><path d="M980 180V324M987 180V324M994 180V324" stroke="#a9874f" stroke-opacity=".35"/><path d="M972 326h30l-16 6h-30z" fill="#6d5326" fill-opacity=".22"/><path d="M1030 326V268l5 -7 6 5 6 -9 5 6 4 -4 4 3V326z" fill="url(#fut)"/><path d="M1038 274V324M1045 274V324M1052 274V324" stroke="#a9874f" stroke-opacity=".35"/><path d="M1030 326h30l-16 6h-30z" fill="#6d5326" fill-opacity=".22"/><rect x="1088" y="178" width="30" height="148" fill="url(#fut)"/><path d="M1084 172h38l-4 7h-30z" fill="#e2c99a"/><rect x="1082" y="164" width="42" height="8" fill="#f4e4bf"/><rect x="1082" y="164" width="42" height="2" fill="#fff6dc"/><path d="M1096 180V324M1103 180V324M1110 180V324" stroke="#a9874f" stroke-opacity=".35"/><path d="M1088 326h30l-16 6h-30z" fill="#6d5326" fill-opacity=".22"/></g>
<path d="M970 160V146h158v14z" fill="#ead6a8"/><rect x="970" y="158" width="158" height="2" fill="#a9874f" fill-opacity=".45"/>
<path d="M962 146V132h166v14z" fill="#e0c794"/>
<g fill="#c8a970"><rect x="972" y="133" width="9" height="13"/><rect x="1006" y="133" width="9" height="13"/><rect x="1040" y="133" width="9" height="13"/><rect x="1074" y="133" width="9" height="13"/><rect x="1108" y="133" width="9" height="13"/></g>
<path d="M956 132V124h178v8z" fill="#f4e5c1"/><rect x="956" y="124" width="178" height="2" fill="#fff7e2"/>
<path d="M1134 124L1046 88l-6 8 5 8-12 6-4 14z" fill="#efdcb0"/><path d="M1120 120L1050 96l-2 4 3 6-8 4-2 10z" fill="#d6bb86"/>
<rect x="1192" y="196" width="32" height="150" fill="url(#fut)"/><rect x="1300" y="196" width="32" height="150" fill="url(#fut)"/>
<rect x="1188" y="188" width="40" height="9" fill="#f2e1b8"/><rect x="1296" y="188" width="40" height="9" fill="#f2e1b8"/>
<path d="M1224 346V196A38 38 0 0 1 1300 196V346z" fill="url(#champ)"/>
<path d="M1224 346V196A38 38 0 0 1 1300 196V346z" fill="url(#balayage)"/>
<path d="M1225 346V196M1299 346V196" stroke="#d9fbff" stroke-width="2" stroke-opacity=".9"/>
<path d="M1224 346V196A38 38 0 0 1 1300 196V346" fill="none" stroke="#7fdcff" stroke-width="6" stroke-opacity=".35" filter="url(#lueur)"/>
<path d="M1190 196A72 72 0 0 1 1194.3 171.4L1226.3 183A38 38 0 0 0 1224 196z" fill="#f3e2ba" stroke="#b08c55" stroke-opacity=".55"/><path d="M1194.3 171.4A72 72 0 0 1 1206.8 149.7L1232.9 171.6A38 38 0 0 0 1226.3 183z" fill="#ead4a3" stroke="#b08c55" stroke-opacity=".55"/><path d="M1206.8 149.7A72 72 0 0 1 1226 133.6L1243 163.1A38 38 0 0 0 1232.9 171.6z" fill="#f3e2ba" stroke="#b08c55" stroke-opacity=".55"/><path d="M1226 133.6A72 72 0 0 1 1249.5 125.1L1255.4 158.6A38 38 0 0 0 1243 163.1z" fill="#ead4a3" stroke="#b08c55" stroke-opacity=".55"/><path d="M1249.5 125.1A72 72 0 0 1 1274.5 125.1L1268.6 158.6A38 38 0 0 0 1255.4 158.6z" fill="#f3e2ba" stroke="#b08c55" stroke-opacity=".55"/><path d="M1274.5 125.1A72 72 0 0 1 1298 133.6L1281 163.1A38 38 0 0 0 1268.6 158.6z" fill="#ead4a3" stroke="#b08c55" stroke-opacity=".55"/><path d="M1329.7 171.4A72 72 0 0 1 1334 196L1300 196A38 38 0 0 0 1297.7 183z" fill="#f3e2ba" stroke="#b08c55" stroke-opacity=".55"/><path d="M1332 360l26 -4 6 14 -28 4z" fill="#e7d09f" stroke="#b08c55" stroke-opacity=".5"/>
<g><ellipse cx="1199.1" cy="351.1" rx="4.2" ry="2.6" transform="rotate(175 1199.1 351.1)" fill="#68b34c"/><ellipse cx="1198.5" cy="338.9" rx="4.2" ry="2.6" transform="rotate(55 1198.5 338.9)" fill="#3f8f3a"/><ellipse cx="1194.2" cy="327.9" rx="4.2" ry="2.6" transform="rotate(168 1194.2 327.9)" fill="#68b34c"/><ellipse cx="1204.5" cy="325.3" rx="4.2" ry="2.6" transform="rotate(101 1204.5 325.3)" fill="#3f8f3a"/><ellipse cx="1196.8" cy="311.6" rx="4.2" ry="2.6" transform="rotate(127 1196.8 311.6)" fill="#3f8f3a"/><ellipse cx="1206.4" cy="302.9" rx="4.2" ry="2.6" transform="rotate(83 1206.4 302.9)" fill="#3f8f3a"/><ellipse cx="1204.5" cy="297.8" rx="4.2" ry="2.6" transform="rotate(83 1204.5 297.8)" fill="#3f8f3a"/><ellipse cx="1197.4" cy="284" rx="4.2" ry="2.6" transform="rotate(90 1197.4 284)" fill="#3f8f3a"/><ellipse cx="1199.6" cy="275.8" rx="4.2" ry="2.6" transform="rotate(79 1199.6 275.8)" fill="#3f8f3a"/><ellipse cx="1196.5" cy="268.5" rx="4.2" ry="2.6" transform="rotate(16 1196.5 268.5)" fill="#3f8f3a"/><ellipse cx="1202" cy="254.4" rx="4.2" ry="2.6" transform="rotate(149 1202 254.4)" fill="#3f8f3a"/><ellipse cx="1204.6" cy="247.8" rx="4.2" ry="2.6" transform="rotate(51 1204.6 247.8)" fill="#3f8f3a"/><ellipse cx="1200.2" cy="236.9" rx="4.2" ry="2.6" transform="rotate(150 1200.2 236.9)" fill="#3f8f3a"/><ellipse cx="1196.8" cy="229.2" rx="4.2" ry="2.6" transform="rotate(169 1196.8 229.2)" fill="#3f8f3a"/><ellipse cx="1202.3" cy="222.5" rx="4.2" ry="2.6" transform="rotate(128 1202.3 222.5)" fill="#3f8f3a"/><ellipse cx="1204.1" cy="213.3" rx="4.2" ry="2.6" transform="rotate(135 1204.1 213.3)" fill="#3f8f3a"/><ellipse cx="1206.4" cy="204.7" rx="4.2" ry="2.6" transform="rotate(32 1206.4 204.7)" fill="#3f8f3a"/><ellipse cx="1213.6" cy="189.8" rx="4.2" ry="2.6" transform="rotate(61 1213.6 189.8)" fill="#68b34c"/><ellipse cx="1217.2" cy="189.8" rx="4.2" ry="2.6" transform="rotate(65 1217.2 189.8)" fill="#68b34c"/><ellipse cx="1221.3" cy="182.5" rx="4.2" ry="2.6" transform="rotate(28 1221.3 182.5)" fill="#3f8f3a"/><ellipse cx="1218.7" cy="175.8" rx="4.2" ry="2.6" transform="rotate(108 1218.7 175.8)" fill="#68b34c"/><ellipse cx="1226.1" cy="169.1" rx="4.2" ry="2.6" transform="rotate(61 1226.1 169.1)" fill="#3f8f3a"/><ellipse cx="1234.1" cy="160.4" rx="4.2" ry="2.6" transform="rotate(52 1234.1 160.4)" fill="#68b34c"/><ellipse cx="1241.4" cy="161.8" rx="4.2" ry="2.6" transform="rotate(1 1241.4 161.8)" fill="#3f8f3a"/><ellipse cx="1242.5" cy="157" rx="4.2" ry="2.6" transform="rotate(115 1242.5 157)" fill="#3f8f3a"/><ellipse cx="1242.4" cy="145.4" rx="4.2" ry="2.6" transform="rotate(68 1242.4 145.4)" fill="#68b34c"/><ellipse cx="1253.1" cy="144.1" rx="4.2" ry="2.6" transform="rotate(90 1253.1 144.1)" fill="#68b34c"/><ellipse cx="1257.8" cy="146.8" rx="4.2" ry="2.6" transform="rotate(38 1257.8 146.8)" fill="#68b34c"/><ellipse cx="1254.6" cy="141.4" rx="4.2" ry="2.6" transform="rotate(135 1254.6 141.4)" fill="#3f8f3a"/><ellipse cx="1258.9" cy="143.8" rx="4.2" ry="2.6" transform="rotate(56 1258.9 143.8)" fill="#68b34c"/><ellipse cx="855.9" cy="165.6" rx="4.2" ry="2.6" transform="rotate(85 855.9 165.6)" fill="#68b34c"/><ellipse cx="867.8" cy="174.3" rx="4.2" ry="2.6" transform="rotate(120 867.8 174.3)" fill="#68b34c"/><ellipse cx="882" cy="177.3" rx="4.2" ry="2.6" transform="rotate(109 882 177.3)" fill="#3f8f3a"/><ellipse cx="860" cy="188.9" rx="4.2" ry="2.6" transform="rotate(112 860 188.9)" fill="#68b34c"/><ellipse cx="886.3" cy="193" rx="4.2" ry="2.6" transform="rotate(82 886.3 193)" fill="#68b34c"/><ellipse cx="868.9" cy="201.1" rx="4.2" ry="2.6" transform="rotate(128 868.9 201.1)" fill="#3f8f3a"/><ellipse cx="868.5" cy="205.5" rx="4.2" ry="2.6" transform="rotate(176 868.5 205.5)" fill="#68b34c"/><ellipse cx="880.2" cy="213.6" rx="4.2" ry="2.6" transform="rotate(158 880.2 213.6)" fill="#68b34c"/><ellipse cx="859.5" cy="219.2" rx="4.2" ry="2.6" transform="rotate(101 859.5 219.2)" fill="#68b34c"/><ellipse cx="859.6" cy="227.8" rx="4.2" ry="2.6" transform="rotate(135 859.6 227.8)" fill="#68b34c"/><ellipse cx="866.8" cy="236.6" rx="4.2" ry="2.6" transform="rotate(63 866.8 236.6)" fill="#3f8f3a"/><ellipse cx="871.3" cy="239.3" rx="4.2" ry="2.6" transform="rotate(113 871.3 239.3)" fill="#68b34c"/><ellipse cx="884.7" cy="250.4" rx="4.2" ry="2.6" transform="rotate(79 884.7 250.4)" fill="#68b34c"/><ellipse cx="875.6" cy="255.1" rx="4.2" ry="2.6" transform="rotate(98 875.6 255.1)" fill="#3f8f3a"/></g>
<rect x="787" y="300" width="26" height="46" fill="url(#fut)"/><rect x="781" y="295" width="38" height="7" fill="#f2e1b8"/>
<path d="M775 262l50 -7 2 36 -50 6z" fill="#7dffb6" filter="url(#lueur)" opacity=".55"/>
<path d="M775 262l50 -7 2 36 -50 6z" fill="#0d1f15" stroke="#3a4a3e" stroke-width="2"/>
<path d="M782 268l30 -4M782 275l38 -5M783 282l22 -3M783 289l12 -2" stroke="#8dffbf" stroke-width="2" stroke-linecap="round"/>
<rect x="797" y="285" width="5" height="6" fill="#c8ffdf" transform="rotate(-8 799 288)"/>
<g fill="url(#fut)"><rect x="886" y="358" width="48" height="20" rx="2"/><rect x="1222" y="368" width="34" height="15" rx="2"/></g>
<ellipse cx="934" cy="368" rx="6" ry="10" fill="#f0dcb0" stroke="#b08c55" stroke-opacity=".6"/>
<ellipse cx="1256" cy="375.5" rx="4.5" ry="7.5" fill="#f0dcb0" stroke="#b08c55" stroke-opacity=".6"/>
<path d="M0.1 373.5l-2.1 -7.8M0.1 373.5l2.7 -6.2M572 376.8l-2.9 -9.2M572 376.8l1.6 -7.4M305.9 386.3l-2.8 -6.3M305.9 386.3l2.2 -5M1157.4 370.4l-2.4 -5.8M1157.4 370.4l2.5 -4.6M829.3 378.6l-2.5 -9.3M829.3 378.6l1.6 -7.4M270.4 379.6l-2 -11.4M270.4 379.6l1.8 -9.1M1241.8 377.1l-3.2 -5.9M1241.8 377.1l2.9 -4.7M448.7 395.3l-3.4 -5.2M448.7 395.3l2.6 -4.1M1329 365.8l-3.6 -6.5M1329 365.8l2.9 -5.2M1024.5 400l-2.9 -12.2M1024.5 400l1.5 -9.8M1332.7 391.9l-3.7 -8.2M1332.7 391.9l1 -6.5M932.7 397.7l-3.4 -9.9M932.7 397.7l2 -8M1194.3 372.8l-4 -13.3M1194.3 372.8l1.9 -10.7M1135.7 376.4l-2.1 -7M1135.7 376.4l1.1 -5.6M1158.1 357.2l-3.1 -8.2M1158.1 357.2l1.8 -6.5M661.2 357.1l-2.3 -8.4M661.2 357.1l2.1 -6.7M771 396.4l-4 -5.9M771 396.4l3 -4.7M1084 379.1l-3.7 -8.3M1084 379.1l2.3 -6.7M703.1 366.7l-2.5 -9.8M703.1 366.7l2.9 -7.8M797.1 395.7l-2.3 -6.3M797.1 395.7l2.9 -5.1M967.3 365.8l-2.7 -12.4M967.3 365.8l2.8 -10M676.6 376.4l-2.2 -7.1M676.6 376.4l2.6 -5.7M1222.7 364.6l-2.7 -11.8M1222.7 364.6l2.7 -9.5M608.6 352l-2.1 -5.2M608.6 352l2.1 -4.1M413.9 390.8l-3.3 -7.9M413.9 390.8l3 -6.3M690.1 388.3l-3.3 -6.6M690.1 388.3l2 -5.2M341.5 364.7l-3.2 -9.5M341.5 364.7l1.9 -7.6M421.9 375.6l-2.2 -9.6M421.9 375.6l2.3 -7.7M1142.9 375.8l-2.4 -10M1142.9 375.8l2.5 -8M523.1 357l-2.8 -10.1M523.1 357l1.4 -8.1M716.4 396.3l-2.3 -8.5M716.4 396.3l2.7 -6.8M1167.3 386.9l-2.6 -7.2M1167.3 386.9l1.5 -5.7M437 396.1l-3.1 -11.2M437 396.1l1.8 -9M718.8 373.3l-2 -11.7M718.8 373.3l2.6 -9.3M1097.1 375.3l-2 -10.5M1097.1 375.3l2.7 -8.4M1365.4 395.1l-2.3 -7.2M1365.4 395.1l1.7 -5.8M665.7 399.9l-2.9 -11.8M665.7 399.9l1.4 -9.4M791.7 381l-2.6 -13.9M791.7 381l1.2 -11.2M651.1 398.1l-2.1 -12.5M651.1 398.1l2.2 -10M1014 393.2l-2.7 -9.5M1014 393.2l1.4 -7.6M1276.4 383.6l-3.1 -6.2M1276.4 383.6l1.7 -5M899.1 392.3l-3.1 -5.2M899.1 392.3l2.7 -4.2M1131.1 389.1l-2.4 -6.4M1131.1 389.1l2.5 -5.1M1004 392.7l-2.7 -8.4M1004 392.7l2 -6.7M273.1 356l-3.6 -9.7M273.1 356l3 -7.8M743.6 397.8l-2.7 -12.9M743.6 397.8l2.8 -10.4M662.3 383.7l-3.7 -11.3M662.3 383.7l1.3 -9M1222.4 352.8l-4 -7.9M1222.4 352.8l2.4 -6.4M1309.5 389.4l-2 -5.1M1309.5 389.4l2 -4M1 376.5l-3 -10.4M1 376.5l2 -8.3M361 361.6l-2.2 -12.2M361 361.6l1.1 -9.7M1258.8 371.4l-2.7 -13.3M1258.8 371.4l1.7 -10.7M1248.3 365.3l-2.8 -9.3M1248.3 365.3l1.6 -7.4M1345.9 381.5l-3.1 -6.1M1345.9 381.5l2.2 -4.9M187.1 358l-3.6 -6M187.1 358l2.4 -4.8M23.8 376l-3.2 -8.4M23.8 376l2.9 -6.7M156.7 387.3l-3.7 -12.8M156.7 387.3l2.1 -10.2M165.2 371.8l-3.3 -13.8M165.2 371.8l2.5 -11.1M922.1 365.6l-3.9 -8.3M922.1 365.6l2.2 -6.6" stroke="#6f8f2f" stroke-width="1.4" stroke-linecap="round" fill="none"/>
<circle cx="812.5" cy="377.9" r="2.1" fill="#ffffff"/><circle cx="408.5" cy="373.1" r="2.4" fill="#e8452c"/><circle cx="655" cy="383.6" r="2.4" fill="#ffd23a"/><circle cx="1090" cy="370.9" r="2" fill="#e8452c"/><circle cx="175.3" cy="361.7" r="2" fill="#ffd23a"/><circle cx="1139.6" cy="374.4" r="2" fill="#ffffff"/><circle cx="1035.1" cy="393.3" r="1.5" fill="#e8452c"/><circle cx="1281.7" cy="366.3" r="1.7" fill="#e8452c"/><circle cx="1205.3" cy="359" r="2.4" fill="#e8452c"/><circle cx="614" cy="384.7" r="1.4" fill="#e8452c"/><circle cx="549.2" cy="359" r="1.8" fill="#ffd23a"/><circle cx="90.7" cy="386.3" r="1.8" fill="#ffd23a"/><circle cx="926.9" cy="393.5" r="2.3" fill="#e8452c"/><circle cx="1094.8" cy="398.2" r="2.4" fill="#e8452c"/><circle cx="230.2" cy="356.7" r="1.5" fill="#e8452c"/><circle cx="134.9" cy="397" r="2.3" fill="#ffffff"/><circle cx="397.2" cy="383.9" r="1.4" fill="#e8452c"/><circle cx="340.1" cy="389.8" r="2.4" fill="#ffffff"/><circle cx="1124.2" cy="373.9" r="1.7" fill="#e8452c"/><circle cx="409.5" cy="394.9" r="1.5" fill="#ffd23a"/><circle cx="1230.7" cy="390.9" r="2.6" fill="#ffffff"/><circle cx="298.9" cy="391.2" r="1.5" fill="#ffd23a"/><circle cx="984.6" cy="388.4" r="2.7" fill="#e8452c"/><circle cx="523.7" cy="366.7" r="2.6" fill="#e8452c"/><circle cx="1123.5" cy="396.7" r="1.5" fill="#e8452c"/><circle cx="127.4" cy="380.1" r="1.9" fill="#e8452c"/><circle cx="198.5" cy="388.1" r="2.1" fill="#ffd23a"/><circle cx="851.3" cy="390.2" r="2.4" fill="#e8452c"/><circle cx="374.1" cy="380.5" r="1.7" fill="#e8452c"/><circle cx="1007.8" cy="396.1" r="2.2" fill="#e8452c"/><circle cx="238.7" cy="384.7" r="1.9" fill="#ffd23a"/><circle cx="900.1" cy="383.8" r="2.5" fill="#e8452c"/><circle cx="25.5" cy="374.4" r="1.8" fill="#e8452c"/><circle cx="540.6" cy="370.9" r="1.6" fill="#ffd23a"/><circle cx="1258.5" cy="373.2" r="1.9" fill="#ffffff"/><circle cx="99.4" cy="394" r="2.4" fill="#ffffff"/><circle cx="539.4" cy="359.6" r="2" fill="#e8452c"/><circle cx="306.8" cy="387.5" r="2.5" fill="#ffffff"/><circle cx="934.8" cy="397.5" r="2.5" fill="#ffffff"/>
</svg>